<?xml version="1.0" encoding="UTF-8"?>
<svg version="1.1" xmlns="http://www.w3.org/2000/svg" width="64" height="64">
<path d="M0 0 C0.99 0.33 1.98 0.66 3 1 C3.10119387 6.38082554 2.78392356 11.37644272 1.94140625 16.7109375 C1.77849342 17.75225327 1.77849342 17.75225327 1.61228943 18.81460571 C1.38400663 20.26537434 1.15278219 21.71568297 0.91870117 23.16552734 C0.56021039 25.38920215 0.21204072 27.61431971 -0.13476562 29.83984375 C-1.85510414 40.71020829 -1.85510414 40.71020829 -3 43 C-4.32 42.67 -5.64 42.34 -7 42 C-6.66016001 32.65440033 -5.44742091 23.48997966 -4.0625 14.25 C-3.89266602 13.08291504 -3.72283203 11.91583008 -3.54785156 10.71337891 C-3.37866211 9.61687012 -3.20947266 8.52036133 -3.03515625 7.390625 C-2.8844165 6.40094727 -2.73367676 5.41126953 -2.57836914 4.39160156 C-2 2 -2 2 0 0 Z " fill="#00C9DF" transform="translate(34,13)"/>
<path d="M0 0 C0.99 0.33 1.98 0.66 3 1 C2.40246272 6.54167638 -0.3536193 8.51484039 -4.3828125 12.03515625 C-6.21183067 13.83323911 -6.21183067 13.83323911 -6 16 C-4.31222767 19.37554466 -1.4283768 21.45592815 1.3828125 23.90234375 C3 26 3 26 2.7421875 28.75390625 C2.49726563 29.49511719 2.25234375 30.23632812 2 31 C-2.52744441 30.62360913 -4.85131658 27.36928457 -7.6875 24.1875 C-8.18572266 23.65318359 -8.68394531 23.11886719 -9.19726562 22.56835938 C-13.70404991 17.59683208 -13.70404991 17.59683208 -14 14 C-12.82836914 12.26074219 -12.82836914 12.26074219 -11.03515625 10.546875 C-10.40029297 9.928125 -9.76542969 9.309375 -9.11132812 8.671875 C-8.43521484 8.03765625 -7.75910156 7.4034375 -7.0625 6.75 C-6.05413086 5.77546875 -6.05413086 5.77546875 -5.02539062 4.78125 C-3.36087407 3.17575886 -1.68584572 1.58303096 0 0 Z " fill="#00CAE0" transform="translate(19,19)"/>
<path d="M0 0 C3.98193402 1.60790685 6.71258185 4.3803804 9.6875 7.375 C10.18572266 7.85710938 10.68394531 8.33921875 11.19726562 8.8359375 C13.14435136 10.78038133 14.80618262 12.63243918 16.09375 15.07421875 C15.94145449 18.2026223 14.05764603 19.37796223 11.8125 21.4375 C8.59543082 24.47417278 5.6449805 27.43502629 3 31 C1.68 30.67 0.36 30.34 -1 30 C-0.40246272 24.45832362 2.3536193 22.48515961 6.3828125 18.96484375 C8.21183067 17.16676089 8.21183067 17.16676089 8 15 C6.31222767 11.62445534 3.4283768 9.54407185 0.6171875 7.09765625 C-1 5 -1 5 -0.7421875 2.24609375 C-0.49726562 1.50488281 -0.25234375 0.76367188 0 0 Z " fill="#0095EB" transform="translate(43,19)"/>
</svg>
